<mxfile host="Electron" modified="2023-10-04T09:08:33.529Z" agent="5.0 (Windows NT 10.0; Win64; x64) AppleWebKit/537.36 (KHTML, like Gecko) draw.io/20.3.0 Chrome/104.0.5112.114 Electron/20.1.3 Safari/537.36" etag="5qH9qCadHB0TmEdpauz9" compressed="false" version="20.3.0" type="device">
  <diagram name="IM017A" id="JDwBi0whNElKICfpdmmy">
    <mxGraphModel dx="782" dy="531" grid="1" gridSize="2" guides="1" tooltips="1" connect="1" arrows="1" fold="1" page="1" pageScale="1" pageWidth="1169" pageHeight="827" math="0" shadow="0">
      <root>
        <mxCell id="km2QJVbFfOpmcC_arqvF-0" />
        <mxCell id="km2QJVbFfOpmcC_arqvF-124" value="Connection" style="" parent="km2QJVbFfOpmcC_arqvF-0" />
        <object label="Connection" PipingConnector="N" LabelConnector="N" SignalConnector="Y" Direction="270" id="x0dU82afqxrR8zdScq9k-0">
          <mxCell style="vsdxID=1407;fillColor=none;gradientColor=none;shape=stencil(rVFbDsIgEDwNnyQU4glqvcfGblsilmZBS28vZGMsxg9j/JvZmX1kR5g2TLCg0CpE8hdcbR8nYY5CaztPSDZmJEwnTDt4wpH8be6ZL1CcBV39vUxI3KdKh1YbswPTEzuBzlmiVGmKau9zUKM+jlJJQrJBko8QrZ+rrQ5oRJnXyMHBWElhRVx25ebnw/5zVvPFWRm83jxY5zilvf4eSy5xpKZ7AA==);strokeColor=#00ff00;strokeWidth=1;points=[[0.5,0.5,0,0,0]];labelBackgroundColor=none;rounded=0;html=1;whiteSpace=wrap;aspect=fixed;noLabel=1;snapToPoint=1;container=0;fontSize=16;" parent="km2QJVbFfOpmcC_arqvF-124" vertex="1">
            <mxGeometry x="394" y="138" width="12" height="12" as="geometry" />
          </mxCell>
        </object>
        <object label="Connection" PipingConnector="N" LabelConnector="N" SignalConnector="Y" Direction="90" id="x0dU82afqxrR8zdScq9k-1">
          <mxCell style="vsdxID=1407;fillColor=none;gradientColor=none;shape=stencil(rVFbDsIgEDwNnyQU4glqvcfGblsilmZBS28vZGMsxg9j/JvZmX1kR5g2TLCg0CpE8hdcbR8nYY5CaztPSDZmJEwnTDt4wpH8be6ZL1CcBV39vUxI3KdKh1YbswPTEzuBzlmiVGmKau9zUKM+jlJJQrJBko8QrZ+rrQ5oRJnXyMHBWElhRVx25ebnw/5zVvPFWRm83jxY5zilvf4eSy5xpKZ7AA==);strokeColor=#00ff00;strokeWidth=1;points=[[0.5,0.5,0,0,0]];labelBackgroundColor=none;rounded=0;html=1;whiteSpace=wrap;aspect=fixed;noLabel=1;snapToPoint=1;container=0;fontSize=16;" parent="km2QJVbFfOpmcC_arqvF-124" vertex="1">
            <mxGeometry x="394" y="362" width="12" height="12" as="geometry" />
          </mxCell>
        </object>
        <mxCell id="km2QJVbFfOpmcC_arqvF-130" value="Label" style="locked=1;" parent="km2QJVbFfOpmcC_arqvF-0" />
        <object label="%LabelLines%&amp;nbsp; &amp;nbsp; &amp;nbsp; &amp;nbsp; &amp;nbsp; &amp;nbsp;%LabelIndex%" placeholders="1" LabelLines="1" LabelIndex="B" id="km2QJVbFfOpmcC_arqvF-132">
          <mxCell style="rounded=0;whiteSpace=wrap;html=1;fillColor=none;strokeColor=#FF0000;fontColor=#FF0000;fontSize=10;align=left;noLabel=0;" parent="km2QJVbFfOpmcC_arqvF-130" vertex="1">
            <mxGeometry x="360" y="240" width="80" height="16" as="geometry" />
          </mxCell>
        </object>
        <object label="%LabelLines%&amp;nbsp; &amp;nbsp; &amp;nbsp; &amp;nbsp; &amp;nbsp; &amp;nbsp;%LabelIndex%" placeholders="1" LabelLines="1" LabelIndex="A" id="km2QJVbFfOpmcC_arqvF-133">
          <mxCell style="rounded=0;whiteSpace=wrap;html=1;fillColor=none;strokeColor=#FF0000;fontColor=#FF0000;fontSize=10;align=left;noLabel=0;" parent="km2QJVbFfOpmcC_arqvF-130" vertex="1">
            <mxGeometry x="360" y="170" width="80" height="16" as="geometry" />
          </mxCell>
        </object>
        <mxCell id="km2QJVbFfOpmcC_arqvF-134" value="Origo" style="locked=1;" parent="km2QJVbFfOpmcC_arqvF-0" visible="0" />
        <object label="origo" id="km2QJVbFfOpmcC_arqvF-135">
          <mxCell style="vsdxID=1407;fillColor=none;gradientColor=none;shape=stencil(rVFbDsIgEDwNnyQU4glqvcfGblsilmZBS28vZGMsxg9j/JvZmX1kR5g2TLCg0CpE8hdcbR8nYY5CaztPSDZmJEwnTDt4wpH8be6ZL1CcBV39vUxI3KdKh1YbswPTEzuBzlmiVGmKau9zUKM+jlJJQrJBko8QrZ+rrQ5oRJnXyMHBWElhRVx25ebnw/5zVvPFWRm83jxY5zilvf4eSy5xpKZ7AA==);strokeColor=#ff0000;strokeWidth=1;points=[[0.5,0.5,0,0,0]];labelBackgroundColor=none;rounded=0;html=1;whiteSpace=wrap;aspect=fixed;noLabel=1;snapToPoint=1;" parent="km2QJVbFfOpmcC_arqvF-134" vertex="1">
            <mxGeometry x="396" y="140" width="7.874" height="7.87" as="geometry" />
          </mxCell>
        </object>
        <object label="Symbol" Width="12" Height="14" UoM="mm" id="km2QJVbFfOpmcC_arqvF-136">
          <mxCell style="locked=1;" parent="km2QJVbFfOpmcC_arqvF-0" />
        </object>
        <mxCell id="qiyPhvmg4lg1QXBYXzsJ-2" value="" style="rounded=0;whiteSpace=wrap;html=1;strokeWidth=1;fillColor=none;" parent="km2QJVbFfOpmcC_arqvF-136" vertex="1">
          <mxGeometry x="304" y="144" width="192" height="64" as="geometry" />
        </mxCell>
        <mxCell id="qiyPhvmg4lg1QXBYXzsJ-3" value="" style="triangle;whiteSpace=wrap;html=1;strokeWidth=1;fillColor=none;rotation=90;" parent="km2QJVbFfOpmcC_arqvF-136" vertex="1">
          <mxGeometry x="319.5" y="192.5" width="161" height="192" as="geometry" />
        </mxCell>
      </root>
    </mxGraphModel>
  </diagram>
</mxfile>
